<svg id="visual" viewBox="0 0 900 600" width="900" height="600" xmlns="http://www.w3.org/2000/svg" xmlns:xlink="http://www.w3.org/1999/xlink" version="1.1"><rect x="0" y="0" width="900" height="600" fill="#ffffff"></rect><path d="M393 600L428.2 580C463.3 560 533.7 520 527 480C520.3 440 436.7 400 400.5 360C364.3 320 375.7 280 411.3 240C447 200 507 160 526.3 120C545.7 80 524.3 40 513.7 20L503 0L900 0L900 20C900 40 900 80 900 120C900 160 900 200 900 240C900 280 900 320 900 360C900 400 900 440 900 480C900 520 900 560 900 580L900 600Z" fill="#5C0F9C" stroke-linecap="round" stroke-linejoin="miter"></path></svg>